<svg xmlns:svg="http://www.w3.org/2000/svg" xmlns="http://www.w3.org/2000/svg" version="1.1">
<polygon points="30.00,30.00 30.00,30.00 30.00,30.00 30.00,30.00 118.00,30.00 118.00,30.00 118.00,30.00 118.00,30.00 118.00,124.00 118.00,124.00 30.00,124.00 30.00,124.00 30.00,30.00 " style="fill:#e15b35ff; opacity:0.5; stroke:none" />
<line x1="30.00" y1="30.00" x2="30.00" y2="30.00" style="stroke:red; stroke-width:4" />
<line x1="30.00" y1="30.00" x2="30.00" y2="30.00" style="stroke:red; stroke-width:4" />
<line x1="30.00" y1="30.00" x2="30.00" y2="30.00" style="stroke:red; stroke-width:4" />
<line x1="30.00" y1="30.00" x2="118.00" y2="30.00" style="stroke:red; stroke-width:4" />
<line x1="118.00" y1="30.00" x2="118.00" y2="30.00" style="stroke:#6e0d04ff; stroke-width:1; stroke-dasharray:none" />
<line x1="118.00" y1="30.00" x2="118.00" y2="30.00" style="stroke:red; stroke-width:4" />
<line x1="118.00" y1="30.00" x2="118.00" y2="30.00" style="stroke:red; stroke-width:4" />
<line x1="118.00" y1="30.00" x2="118.00" y2="124.00" style="stroke:red; stroke-width:4" />
<line x1="118.00" y1="124.00" x2="118.00" y2="124.00" style="stroke:#6e0d04ff; stroke-width:1; stroke-dasharray:none" />
<line x1="118.00" y1="124.00" x2="30.00" y2="124.00" style="stroke:red; stroke-width:4" />
<line x1="30.00" y1="124.00" x2="30.00" y2="124.00" style="stroke:#6e0d04ff; stroke-width:1; stroke-dasharray:none" />
<line x1="30.00" y1="124.00" x2="30.00" y2="30.00" style="stroke:#6e0d04ff; stroke-width:1; stroke-dasharray:none" />
<line x1="30.00" y1="30.00" x2="30.00" y2="30.00" style="stroke:#6e0d04ff; stroke-width:1; stroke-dasharray:none" />
</svg>
