<svg xmlns:svg="http://www.w3.org/2000/svg" xmlns="http://www.w3.org/2000/svg" version="1.1" viewBox="-20.000000 -20.000000 188.000000 194.000000">
	<rect id="-1" x="-20.000000" y="-20.000000" width="188.000000" height="194.000000" stroke="black" fill="none" opacity="0.5" />
<polygon points="-20.00,143.98 -20.00,114.74 30.00,124.00 118.00,124.00 118.00,123.24 -20.00,-20.00 -17.37,-20.00 30.00,30.00 118.00,30.00 109.23,-20.00 168.00,-20.00 168.00,174.00 -19.99,174.00 " style="fill:#e15b35ff; opacity:0.5; stroke:#6e0d04ff; stroke-width:1" />
<polygon points="-20.00,143.98 -20.00,114.74 30.00,124.00 118.00,124.00 118.00,123.24 -20.00,-20.00 -17.37,-20.00 30.00,30.00 118.00,30.00 109.23,-20.00 168.00,-20.00 168.00,174.00 -19.99,174.00 " style="fill:#e15b35ff; opacity:0.5; stroke:#6e0d04ff; stroke-width:1" />
<line id="6" x1="59.000000" y1="65.000000" x2="68.000000" y2="78.000000" stroke="#008000" stroke-width="2" />
	<circle id="9" cx="55.000000" cy="60.000000" r="5.000000" stroke="#501644" fill="#d35fbc" fill-opacity="0.5"/>
<line id="6" x1="59.000000" y1="65.000000" x2="68.000000" y2="78.000000" stroke="#008000" stroke-width="2" />
	<circle id="9" cx="55.000000" cy="60.000000" r="5.000000" stroke="#501644" fill="#d35fbc" fill-opacity="0.5"/>
</svg>
