<svg xmlns:svg="http://www.w3.org/2000/svg" xmlns="http://www.w3.org/2000/svg" version="1.1" viewBox="-20.000000 -20.000000 188.000000 194.000000">
	<rect id="-1" x="-20.000000" y="-20.000000" width="188.000000" height="194.000000" stroke="black" fill="none" opacity="0.5" />
<polygon points="-20.00,143.98 30.00,124.00 118.00,124.00 118.00,30.00 168.00,-20.00 168.00,174.00 -20.00,174.00 " style="fill:#e15b35ff; opacity:0.5; stroke:#6e0d04ff; stroke-width:1" />
	<rect id="5" x="68.000000" y="75.000000" width="14.000000" height="29.000000" stroke="#800080" fill="#FF00FF" opacity="0.5" />
<line id="6" x1="59.000000" y1="65.000000" x2="68.000000" y2="78.000000" stroke="#008000" stroke-width="2" />
<line id="7" x1="74.500000" y1="59.900000" x2="75.000000" y2="77.000000" stroke="#008000" stroke-width="2" />
<line id="8" x1="90.500000" y1="63.300000" x2="79.700000" y2="78.300000" stroke="#008000" stroke-width="2" />
	<circle id="9" cx="55.000000" cy="60.000000" r="5.000000" stroke="#501644" fill="#d35fbc" fill-opacity="0.5"/>
	<circle id="10" cx="74.000000" cy="55.000000" r="5.000000" stroke="#501644" fill="#d35fbc" fill-opacity="0.5"/>
	<circle id="11" cx="93.000000" cy="59.000000" r="5.000000" stroke="#501644" fill="#d35fbc" fill-opacity="0.5"/>
	<rect id="5" x="68.000000" y="75.000000" width="14.000000" height="29.000000" stroke="#800080" fill="#FF00FF" opacity="0.5" />
<line id="6" x1="59.000000" y1="65.000000" x2="68.000000" y2="78.000000" stroke="#008000" stroke-width="2" />
<line id="7" x1="74.500000" y1="59.900000" x2="75.000000" y2="77.000000" stroke="#008000" stroke-width="2" />
<line id="8" x1="90.500000" y1="63.300000" x2="79.700000" y2="78.300000" stroke="#008000" stroke-width="2" />
	<circle id="9" cx="55.000000" cy="60.000000" r="5.000000" stroke="#501644" fill="#d35fbc" fill-opacity="0.5"/>
	<circle id="10" cx="74.000000" cy="55.000000" r="5.000000" stroke="#501644" fill="#d35fbc" fill-opacity="0.5"/>
	<circle id="11" cx="93.000000" cy="59.000000" r="5.000000" stroke="#501644" fill="#d35fbc" fill-opacity="0.5"/>
</svg>
