<svg xmlns:svg="http://www.w3.org/2000/svg" xmlns="http://www.w3.org/2000/svg" version="1.1" viewBox="20.000000 20.000000 108.000000 114.000000">
	<rect id="-1" x="20.000000" y="20.000000" width="108.000000" height="114.000000" stroke="black" fill="none" opacity="0.5" />
<polygon points="20.00,122.15 118.00,124.00 128.00,134.00 128.00,134.00 128.00,134.00 118.00,124.00 118.00,124.00 118.00,122.98 20.00,20.00 20.53,20.00 20.53,20.00 20.53,20.00 118.00,30.00 20.00,122.15 " style="fill:#e15b35ff; opacity:0.5; stroke:none" />
<line x1="20.00" y1="122.15" x2="118.00" y2="124.00" style="stroke:#6e0d04ff; stroke-width:1; stroke-dasharray:none" />
<line x1="118.00" y1="124.00" x2="128.00" y2="134.00" style="stroke:#6e0d04ff; stroke-width:1; stroke-dasharray:none" />
<line x1="128.00" y1="134.00" x2="128.00" y2="134.00" style="stroke:red; stroke-width:4" />
<line x1="128.00" y1="134.00" x2="128.00" y2="134.00" style="stroke:red; stroke-width:4" />
<line x1="128.00" y1="134.00" x2="118.00" y2="124.00" style="stroke:#6e0d04ff; stroke-width:1; stroke-dasharray:none" />
<line x1="118.00" y1="124.00" x2="118.00" y2="124.00" style="stroke:red; stroke-width:4" />
<line x1="118.00" y1="124.00" x2="118.00" y2="122.98" style="stroke:red; stroke-width:4" />
<line x1="118.00" y1="122.98" x2="20.00" y2="20.00" style="stroke:#6e0d04ff; stroke-width:1; stroke-dasharray:none" />
<line x1="20.00" y1="20.00" x2="20.53" y2="20.00" style="stroke:red; stroke-width:4" />
<line x1="20.53" y1="20.00" x2="20.53" y2="20.00" style="stroke:red; stroke-width:4" />
<line x1="20.53" y1="20.00" x2="20.53" y2="20.00" style="stroke:red; stroke-width:4" />
<line x1="20.53" y1="20.00" x2="118.00" y2="30.00" style="stroke:#6e0d04ff; stroke-width:1; stroke-dasharray:none" />
<line x1="118.00" y1="30.00" x2="20.00" y2="122.15" style="stroke:#6e0d04ff; stroke-width:1; stroke-dasharray:none" />
<line x1="20.00" y1="122.15" x2="20.00" y2="122.15" style="stroke:#6e0d04ff; stroke-width:1; stroke-dasharray:none" />
<line id="8" x1="90.500000" y1="63.300000" x2="79.700000" y2="78.300000" stroke="#008000" stroke-width="2" />
	<circle id="9" cx="55.000000" cy="60.000000" r="5.000000" stroke="#501644" fill="#d35fbc" fill-opacity="0.5"/>
	<circle id="11" cx="93.000000" cy="59.000000" r="5.000000" stroke="#501644" fill="#d35fbc" fill-opacity="0.5"/>
<line id="8" x1="90.500000" y1="63.300000" x2="79.700000" y2="78.300000" stroke="#008000" stroke-width="2" />
	<circle id="9" cx="55.000000" cy="60.000000" r="5.000000" stroke="#501644" fill="#d35fbc" fill-opacity="0.5"/>
	<circle id="11" cx="93.000000" cy="59.000000" r="5.000000" stroke="#501644" fill="#d35fbc" fill-opacity="0.5"/>
</svg>
