<svg xmlns:svg="http://www.w3.org/2000/svg" xmlns="http://www.w3.org/2000/svg" version="1.1" viewBox="-20.000000 -20.000000 188.000000 194.000000">
	<rect id="-1" x="-20.000000" y="-20.000000" width="188.000000" height="194.000000" stroke="black" fill="none" opacity="0.5" />
<polygon points="30.00,40.00 30.00,30.00 30.00,30.00 30.00,30.00 50.64,30.00 50.64,30.00 50.64,30.00 61.33,30.00 61.33,30.00 61.33,30.00 117.99,30.00 118.00,30.00 118.00,30.00 118.00,118.41 118.00,118.41 118.00,118.42 118.00,121.65 118.00,121.66 118.00,121.66 118.00,124.00 118.00,124.00 118.00,124.00 30.00,124.00 30.00,124.00 30.00,123.99 30.00,62.33 30.00,62.33 30.00,62.33 30.00,50.70 30.00,50.70 30.00,50.70 30.00,40.00 " style="fill:#e15b35ff; opacity:0.5; stroke:#6e0d04ff; stroke-width:1" />
</svg>
