<svg xmlns:svg="http://www.w3.org/2000/svg" xmlns="http://www.w3.org/2000/svg" version="1.1">
<text id="64" x="202.946232" y="42.512976" text-anchor="middle" fill="#6600ff"> * </text>
<text id="44" x="80.825604" y="296.099073" text-anchor="middle" fill="#6600ff"> * </text>
<line id="17" x1="336.728164" y1="350.629667" x2="337.228164" y2="367.729667" stroke="#008000" stroke-width="2" />
<line id="26" x1="168.946232" y1="390.487024" x2="177.946232" y2="403.487024" stroke="#008000" stroke-width="2" />
	<rect id="35" x="55.825604" y="303.099073" width="14.000000" height="29.000000" stroke="#800080" fill="#FF00FF" opacity="0.5" />
<line id="8" x1="420.500000" y1="213.300000" x2="409.700000" y2="228.300000" stroke="#008000" stroke-width="2" />
<line id="57" x1="184.446232" y1="34.412976" x2="184.946232" y2="51.512976" stroke="#008000" stroke-width="2" />
<text id="32" x="164.946232" y="394.487024" text-anchor="middle" fill="#6600ff"> * </text>
<line id="56" x1="168.946232" y1="39.512976" x2="177.946232" y2="52.512976" stroke="#008000" stroke-width="2" />
<line id="86" x1="130.912802" y1="174.450463" x2="155.671391" y2="199.189345" stroke="#00aa88" stroke-width="2" />
<line id="27" x1="184.446232" y1="385.387024" x2="184.946232" y2="402.487024" stroke="#008000" stroke-width="2" />
<line id="38" x1="78.325604" y1="291.399073" x2="67.525604" y2="306.399073" stroke="#008000" stroke-width="2" />
	<circle id="39" cx="42.825604" cy="288.099073" r="5.000000" stroke="#cc00ff" fill="#6600ff" fill-opacity="0.5"/>
<line id="83" x1="268.114082" y1="283.864833" x2="292.872672" y2="308.603715" stroke="#00aa88" stroke-width="2" />
<text id="94" x="191.973116" y="125.756488" text-anchor="middle" fill="#1a1a1a"> X---------X </text>
	<circle id="21" cx="355.228164" cy="349.729667" r="5.000000" stroke="#cc00ff" fill="#6600ff" fill-opacity="0.5"/>
<text id="91" x="191.973116" y="301.243512" text-anchor="middle" fill="#1a1a1a"> X---------X </text>
<line id="68" x1="352.728164" y1="72.570333" x2="341.928164" y2="87.570333" stroke="#008000" stroke-width="2" />
<line id="84" x1="191.973116" y1="301.243512" x2="216.731705" y2="325.982393" stroke="#00aa88" stroke-width="2" />
<text id="63" x="183.946232" y="38.512976" text-anchor="middle" fill="#6600ff"> * </text>
<line id="36" x1="46.825604" y1="293.099073" x2="55.825604" y2="306.099073" stroke="#008000" stroke-width="2" />
<line id="6" x1="389.000000" y1="215.000000" x2="398.000000" y2="228.000000" stroke="#008000" stroke-width="2" />
	<circle id="60" cx="183.946232" cy="29.512976" r="5.000000" stroke="#cc00ff" fill="#6600ff" fill-opacity="0.5"/>
<text id="62" x="164.946232" y="43.512976" text-anchor="middle" fill="#6600ff"> * </text>
<text id="89" x="302.000000" y="213.500000" text-anchor="middle" fill="#1a1a1a"> X---------X </text>
	<rect id="55" x="177.946232" y="49.512976" width="14.000000" height="29.000000" stroke="#800080" fill="#FF00FF" opacity="0.5" />
	<circle id="59" cx="164.946232" cy="34.512976" r="5.000000" stroke="#cc00ff" fill="#6600ff" fill-opacity="0.5"/>
	<circle id="49" cx="42.825604" cy="131.900927" r="5.000000" stroke="#cc00ff" fill="#6600ff" fill-opacity="0.5"/>
	<rect id="45" x="55.825604" y="146.900927" width="14.000000" height="29.000000" stroke="#800080" fill="#FF00FF" opacity="0.5" />
	<circle id="30" cx="183.946232" cy="380.487024" r="5.000000" stroke="#cc00ff" fill="#6600ff" fill-opacity="0.5"/>
	<circle id="69" cx="317.228164" cy="69.270333" r="5.000000" stroke="#cc00ff" fill="#6600ff" fill-opacity="0.5"/>
<text id="53" x="61.825604" y="135.900927" text-anchor="middle" fill="#6600ff"> * </text>
	<circle id="75" cx="302.000000" cy="213.500000" r="30.000000" stroke="#a05a2c" fill="#d4aa00" fill-opacity="0.5"/>
	<circle id="70" cx="336.228164" cy="64.270333" r="5.000000" stroke="#cc00ff" fill="#6600ff" fill-opacity="0.5"/>
<text id="24" x="355.228164" y="358.729667" text-anchor="middle" fill="#6600ff"> * </text>
	<circle id="10" cx="404.000000" cy="205.000000" r="5.000000" stroke="#cc00ff" fill="#6600ff" fill-opacity="0.5"/>
<text id="93" x="130.912802" y="174.450463" text-anchor="middle" fill="#1a1a1a"> X---------X </text>
<text id="73" x="336.228164" y="73.270333" text-anchor="middle" fill="#6600ff"> * </text>
	<circle id="31" cx="202.946232" cy="384.487024" r="5.000000" stroke="#cc00ff" fill="#6600ff" fill-opacity="0.5"/>
<line id="85" x1="130.912802" y1="252.549537" x2="155.671391" y2="277.288418" stroke="#00aa88" stroke-width="2" />
<line id="66" x1="321.228164" y1="74.270333" x2="330.228164" y2="87.270333" stroke="#008000" stroke-width="2" />
<line id="82" x1="302.000000" y1="213.500000" x2="326.758589" y2="238.238881" stroke="#00aa88" stroke-width="2" />
	<circle id="19" cx="317.228164" cy="350.729667" r="5.000000" stroke="#cc00ff" fill="#6600ff" fill-opacity="0.5"/>
	<circle id="76" cx="268.114082" cy="283.864833" r="30.000000" stroke="#a05a2c" fill="#d4aa00" fill-opacity="0.5"/>
<text id="74" x="355.228164" y="77.270333" text-anchor="middle" fill="#6600ff"> * </text>
	<rect id="25" x="177.946232" y="400.487024" width="14.000000" height="29.000000" stroke="#800080" fill="#FF00FF" opacity="0.5" />
<text id="14" x="423.000000" y="218.000000" text-anchor="middle" fill="#6600ff"> * </text>
	<circle id="51" cx="80.825604" cy="130.900927" r="5.000000" stroke="#cc00ff" fill="#6600ff" fill-opacity="0.5"/>
<text id="34" x="202.946232" y="393.487024" text-anchor="middle" fill="#6600ff"> * </text>
<text id="33" x="183.946232" y="389.487024" text-anchor="middle" fill="#6600ff"> * </text>
<line id="28" x1="200.446232" y1="388.787024" x2="189.646232" y2="403.787024" stroke="#008000" stroke-width="2" />
<line id="58" x1="200.446232" y1="37.812976" x2="189.646232" y2="52.812976" stroke="#008000" stroke-width="2" />
<line id="46" x1="46.825604" y1="136.900927" x2="55.825604" y2="149.900927" stroke="#008000" stroke-width="2" />
<line id="88" x1="268.114082" y1="143.135167" x2="292.872672" y2="167.874048" stroke="#00aa88" stroke-width="2" />
<text id="22" x="317.228164" y="359.729667" text-anchor="middle" fill="#6600ff"> * </text>
	<circle id="9" cx="385.000000" cy="210.000000" r="5.000000" stroke="#cc00ff" fill="#6600ff" fill-opacity="0.5"/>
	<circle id="11" cx="423.000000" cy="209.000000" r="5.000000" stroke="#cc00ff" fill="#6600ff" fill-opacity="0.5"/>
<text id="13" x="404.000000" y="214.000000" text-anchor="middle" fill="#6600ff"> * </text>
<line id="37" x1="62.325604" y1="287.999073" x2="62.825604" y2="305.099073" stroke="#008000" stroke-width="2" />
<line id="18" x1="352.728164" y1="354.029667" x2="341.928164" y2="369.029667" stroke="#008000" stroke-width="2" />
	<rect id="65" x="330.228164" y="84.270333" width="14.000000" height="29.000000" stroke="#800080" fill="#FF00FF" opacity="0.5" />
<text id="92" x="130.912802" y="252.549537" text-anchor="middle" fill="#1a1a1a"> X---------X </text>
<text id="12" x="385.000000" y="219.000000" text-anchor="middle" fill="#6600ff"> * </text>
<text id="52" x="42.825604" y="140.900927" text-anchor="middle" fill="#6600ff"> * </text>
	<circle id="78" cx="130.912802" cy="252.549537" r="30.000000" stroke="#a05a2c" fill="#d4aa00" fill-opacity="0.5"/>
	<circle id="79" cx="130.912802" cy="174.450463" r="30.000000" stroke="#a05a2c" fill="#d4aa00" fill-opacity="0.5"/>
<line id="47" x1="62.325604" y1="131.800927" x2="62.825604" y2="148.900927" stroke="#008000" stroke-width="2" />
	<circle id="40" cx="61.825604" cy="283.099073" r="5.000000" stroke="#cc00ff" fill="#6600ff" fill-opacity="0.5"/>
	<circle id="20" cx="336.228164" cy="345.729667" r="5.000000" stroke="#cc00ff" fill="#6600ff" fill-opacity="0.5"/>
	<circle id="61" cx="202.946232" cy="33.512976" r="5.000000" stroke="#cc00ff" fill="#6600ff" fill-opacity="0.5"/>
<line id="16" x1="321.228164" y1="355.729667" x2="330.228164" y2="368.729667" stroke="#008000" stroke-width="2" />
<text id="95" x="268.114082" y="143.135167" text-anchor="middle" fill="#1a1a1a"> X---------X </text>
	<rect id="15" x="330.228164" y="365.729667" width="14.000000" height="29.000000" stroke="#800080" fill="#FF00FF" opacity="0.5" />
<text id="42" x="42.825604" y="297.099073" text-anchor="middle" fill="#6600ff"> * </text>
	<circle id="81" cx="268.114082" cy="143.135167" r="30.000000" stroke="#a05a2c" fill="#d4aa00" fill-opacity="0.5"/>
<line id="67" x1="336.728164" y1="69.170333" x2="337.228164" y2="86.270333" stroke="#008000" stroke-width="2" />
<text id="43" x="61.825604" y="292.099073" text-anchor="middle" fill="#6600ff"> * </text>
<text id="72" x="317.228164" y="78.270333" text-anchor="middle" fill="#6600ff"> * </text>
<text id="54" x="80.825604" y="139.900927" text-anchor="middle" fill="#6600ff"> * </text>
	<rect id="5" x="398.000000" y="225.000000" width="14.000000" height="29.000000" stroke="#800080" fill="#FF00FF" opacity="0.5" />
<line id="7" x1="404.500000" y1="209.900000" x2="405.000000" y2="227.000000" stroke="#008000" stroke-width="2" />
<line id="87" x1="191.973116" y1="125.756488" x2="216.731705" y2="150.495369" stroke="#00aa88" stroke-width="2" />
	<circle id="50" cx="61.825604" cy="126.900927" r="5.000000" stroke="#cc00ff" fill="#6600ff" fill-opacity="0.5"/>
<text id="23" x="336.228164" y="354.729667" text-anchor="middle" fill="#6600ff"> * </text>
	<circle id="77" cx="191.973116" cy="301.243512" r="30.000000" stroke="#a05a2c" fill="#d4aa00" fill-opacity="0.5"/>
	<circle id="80" cx="191.973116" cy="125.756488" r="30.000000" stroke="#a05a2c" fill="#d4aa00" fill-opacity="0.5"/>
<text id="90" x="268.114082" y="283.864833" text-anchor="middle" fill="#1a1a1a"> X---------X </text>
	<circle id="71" cx="355.228164" cy="68.270333" r="5.000000" stroke="#cc00ff" fill="#6600ff" fill-opacity="0.5"/>
	<circle id="41" cx="80.825604" cy="287.099073" r="5.000000" stroke="#cc00ff" fill="#6600ff" fill-opacity="0.5"/>
<line id="48" x1="78.325604" y1="135.200927" x2="67.525604" y2="150.200927" stroke="#008000" stroke-width="2" />
	<circle id="29" cx="164.946232" cy="385.487024" r="5.000000" stroke="#cc00ff" fill="#6600ff" fill-opacity="0.5"/>
</svg>
