<svg xmlns:svg="http://www.w3.org/2000/svg" xmlns="http://www.w3.org/2000/svg" version="1.1" viewBox="-12.174396 -25.487024 490.174396 504.974048">
	<rect id="-1" x="-12.174396" y="-25.487024" width="490.174396" height="504.974048" stroke="black" fill="none" opacity="0.5" />
<polygon points="-12.17,199.98 -12.17,196.12 155.67,199.19 145.19,188.71 75.92,174.45 100.91,174.45 130.91,174.45 160.91,174.45 175.96,174.45 -12.17,-25.49 8.58,-25.49 136.97,125.76 159.06,125.76 161.97,125.76 191.97,125.76 212.41,146.18 213.11,143.14 216.83,143.14 219.22,143.14 235.98,143.14 238.11,143.14 268.11,143.14 269.01,144.03 478.00,-25.48 478.00,38.87 478.00,71.59 478.00,103.83 478.00,223.90 356.98,213.50 332.01,213.50 331.99,213.50 302.01,213.50 308.93,220.42 324.19,235.67 326.76,238.24 478.00,283.87 478.00,389.37 323.11,283.86 298.12,283.86 283.42,283.86 477.99,479.49 478.01,479.49 439.01,479.49 292.86,308.59 268.12,283.87 426.99,479.49 329.67,479.49 246.97,301.24 246.01,301.24 221.97,301.24 215.83,301.24 213.45,301.24 216.73,325.98 191.97,301.24 172.86,301.24 185.91,252.55 180.26,252.55 169.86,252.55 155.67,277.29 153.34,274.96 148.12,269.75 160.91,252.55 160.11,252.55 -12.17,479.48 -12.17,479.49 -12.17,361.39 -12.17,312.53 -12.17,289.86 " style="fill:#000000; opacity:0.5; stroke:#B388FF; stroke-width:1" />
<polygon points="-12.17,199.98 -12.17,196.12 155.67,199.19 145.19,188.71 75.92,174.45 100.91,174.45 130.91,174.45 160.91,174.45 175.96,174.45 -12.17,-25.49 8.58,-25.49 136.97,125.76 159.06,125.76 161.97,125.76 191.97,125.76 212.41,146.18 213.11,143.14 216.83,143.14 219.22,143.14 235.98,143.14 238.11,143.14 268.11,143.14 269.01,144.03 478.00,-25.48 478.00,38.87 478.00,71.59 478.00,103.83 478.00,223.90 356.98,213.50 332.01,213.50 331.99,213.50 302.01,213.50 308.93,220.42 324.19,235.67 326.76,238.24 478.00,283.87 478.00,389.37 323.11,283.86 298.12,283.86 283.42,283.86 477.99,479.49 478.01,479.49 439.01,479.49 292.86,308.59 268.12,283.87 426.99,479.49 329.67,479.49 246.97,301.24 246.01,301.24 221.97,301.24 215.83,301.24 213.45,301.24 216.73,325.98 191.97,301.24 172.86,301.24 185.91,252.55 180.26,252.55 169.86,252.55 155.67,277.29 153.34,274.96 148.12,269.75 160.91,252.55 160.11,252.55 -12.17,479.48 -12.17,479.49 -12.17,361.39 -12.17,312.53 -12.17,289.86 " style="fill:#e15b35ff; opacity:0.5; stroke:#6e0d04ff; stroke-width:1" />
<polygon points="-12.17,199.98 -12.17,196.12 155.67,199.19 145.19,188.71 75.92,174.45 100.91,174.45 130.91,174.45 160.91,174.45 175.96,174.45 -12.17,-25.49 8.58,-25.49 136.97,125.76 159.06,125.76 161.97,125.76 191.97,125.76 212.41,146.18 213.11,143.14 216.83,143.14 219.22,143.14 235.98,143.14 238.11,143.14 268.11,143.14 269.01,144.03 478.00,-25.48 478.00,38.87 478.00,71.59 478.00,103.83 478.00,223.90 356.98,213.50 332.01,213.50 331.99,213.50 302.01,213.50 308.93,220.42 324.19,235.67 326.76,238.24 478.00,283.87 478.00,389.37 323.11,283.86 298.12,283.86 283.42,283.86 477.99,479.49 478.01,479.49 439.01,479.49 292.86,308.59 268.12,283.87 426.99,479.49 329.67,479.49 246.97,301.24 246.01,301.24 221.97,301.24 215.83,301.24 213.45,301.24 216.73,325.98 191.97,301.24 172.86,301.24 185.91,252.55 180.26,252.55 169.86,252.55 155.67,277.29 153.34,274.96 148.12,269.75 160.91,252.55 160.11,252.55 -12.17,479.48 -12.17,479.49 -12.17,361.39 -12.17,312.53 -12.17,289.86 " style="fill:#e15b35ff; opacity:0.5; stroke:#6e0d04ff; stroke-width:1" />
<text id="64" x="202.946232" y="42.512976" text-anchor="middle" fill="#6600ff"> * </text>
<line id="26" x1="168.946232" y1="390.487024" x2="177.946232" y2="403.487024" stroke="#008000" stroke-width="2" />
<line id="57" x1="184.446232" y1="34.412976" x2="184.946232" y2="51.512976" stroke="#008000" stroke-width="2" />
<text id="32" x="164.946232" y="394.487024" text-anchor="middle" fill="#6600ff"> * </text>
<line id="56" x1="168.946232" y1="39.512976" x2="177.946232" y2="52.512976" stroke="#008000" stroke-width="2" />
<line id="27" x1="184.446232" y1="385.387024" x2="184.946232" y2="402.487024" stroke="#008000" stroke-width="2" />
	<circle id="21" cx="355.228164" cy="349.729667" r="5.000000" stroke="#cc00ff" fill="#6600ff" fill-opacity="0.5"/>
<text id="63" x="183.946232" y="38.512976" text-anchor="middle" fill="#6600ff"> * </text>
	<circle id="60" cx="183.946232" cy="29.512976" r="5.000000" stroke="#cc00ff" fill="#6600ff" fill-opacity="0.5"/>
<text id="62" x="164.946232" y="43.512976" text-anchor="middle" fill="#6600ff"> * </text>
	<rect id="55" x="177.946232" y="49.512976" width="14.000000" height="29.000000" stroke="#800080" fill="#FF00FF" opacity="0.5" />
	<circle id="59" cx="164.946232" cy="34.512976" r="5.000000" stroke="#cc00ff" fill="#6600ff" fill-opacity="0.5"/>
	<circle id="49" cx="42.825604" cy="131.900927" r="5.000000" stroke="#cc00ff" fill="#6600ff" fill-opacity="0.5"/>
	<rect id="45" x="55.825604" y="146.900927" width="14.000000" height="29.000000" stroke="#800080" fill="#FF00FF" opacity="0.5" />
	<circle id="30" cx="183.946232" cy="380.487024" r="5.000000" stroke="#cc00ff" fill="#6600ff" fill-opacity="0.5"/>
	<circle id="69" cx="317.228164" cy="69.270333" r="5.000000" stroke="#cc00ff" fill="#6600ff" fill-opacity="0.5"/>
<text id="53" x="61.825604" y="135.900927" text-anchor="middle" fill="#6600ff"> * </text>
	<circle id="70" cx="336.228164" cy="64.270333" r="5.000000" stroke="#cc00ff" fill="#6600ff" fill-opacity="0.5"/>
<text id="73" x="336.228164" y="73.270333" text-anchor="middle" fill="#6600ff"> * </text>
	<circle id="31" cx="202.946232" cy="384.487024" r="5.000000" stroke="#cc00ff" fill="#6600ff" fill-opacity="0.5"/>
<line id="66" x1="321.228164" y1="74.270333" x2="330.228164" y2="87.270333" stroke="#008000" stroke-width="2" />
	<rect id="25" x="177.946232" y="400.487024" width="14.000000" height="29.000000" stroke="#800080" fill="#FF00FF" opacity="0.5" />
	<circle id="51" cx="80.825604" cy="130.900927" r="5.000000" stroke="#cc00ff" fill="#6600ff" fill-opacity="0.5"/>
<text id="34" x="202.946232" y="393.487024" text-anchor="middle" fill="#6600ff"> * </text>
<text id="33" x="183.946232" y="389.487024" text-anchor="middle" fill="#6600ff"> * </text>
<line id="28" x1="200.446232" y1="388.787024" x2="189.646232" y2="403.787024" stroke="#008000" stroke-width="2" />
<line id="58" x1="200.446232" y1="37.812976" x2="189.646232" y2="52.812976" stroke="#008000" stroke-width="2" />
<line id="46" x1="46.825604" y1="136.900927" x2="55.825604" y2="149.900927" stroke="#008000" stroke-width="2" />
<text id="12" x="385.000000" y="219.000000" text-anchor="middle" fill="#6600ff"> * </text>
<text id="52" x="42.825604" y="140.900927" text-anchor="middle" fill="#6600ff"> * </text>
<line id="47" x1="62.325604" y1="131.800927" x2="62.825604" y2="148.900927" stroke="#008000" stroke-width="2" />
	<circle id="61" cx="202.946232" cy="33.512976" r="5.000000" stroke="#cc00ff" fill="#6600ff" fill-opacity="0.5"/>
<line id="67" x1="336.728164" y1="69.170333" x2="337.228164" y2="86.270333" stroke="#008000" stroke-width="2" />
<text id="72" x="317.228164" y="78.270333" text-anchor="middle" fill="#6600ff"> * </text>
<text id="54" x="80.825604" y="139.900927" text-anchor="middle" fill="#6600ff"> * </text>
	<rect id="5" x="398.000000" y="225.000000" width="14.000000" height="29.000000" stroke="#800080" fill="#FF00FF" opacity="0.5" />
	<circle id="50" cx="61.825604" cy="126.900927" r="5.000000" stroke="#cc00ff" fill="#6600ff" fill-opacity="0.5"/>
	<circle id="71" cx="355.228164" cy="68.270333" r="5.000000" stroke="#cc00ff" fill="#6600ff" fill-opacity="0.5"/>
<line id="48" x1="78.325604" y1="135.200927" x2="67.525604" y2="150.200927" stroke="#008000" stroke-width="2" />
	<circle id="29" cx="164.946232" cy="385.487024" r="5.000000" stroke="#cc00ff" fill="#6600ff" fill-opacity="0.5"/>
<text id="75" x="350.825604" y="566.099073" text-anchor="middle" fill="#6600ff"> * </text>
<line id="76" x1="606.728164" y1="620.629667" x2="607.228164" y2="637.729667" stroke="#008000" stroke-width="2" />
	<rect id="77" x="325.825604" y="573.099073" width="14.000000" height="29.000000" stroke="#800080" fill="#FF00FF" opacity="0.5" />
<line id="78" x1="690.500000" y1="483.300000" x2="679.700000" y2="498.300000" stroke="#008000" stroke-width="2" />
<line id="79" x1="348.325604" y1="561.399073" x2="337.525604" y2="576.399073" stroke="#008000" stroke-width="2" />
	<circle id="80" cx="312.825604" cy="558.099073" r="5.000000" stroke="#cc00ff" fill="#6600ff" fill-opacity="0.5"/>
<line id="81" x1="622.728164" y1="342.570333" x2="611.928164" y2="357.570333" stroke="#008000" stroke-width="2" />
<line id="82" x1="316.825604" y1="563.099073" x2="325.825604" y2="576.099073" stroke="#008000" stroke-width="2" />
<line id="83" x1="659.000000" y1="485.000000" x2="668.000000" y2="498.000000" stroke="#008000" stroke-width="2" />
<text id="84" x="625.228164" y="628.729667" text-anchor="middle" fill="#6600ff"> * </text>
	<circle id="85" cx="674.000000" cy="475.000000" r="5.000000" stroke="#cc00ff" fill="#6600ff" fill-opacity="0.5"/>
	<circle id="86" cx="587.228164" cy="620.729667" r="5.000000" stroke="#cc00ff" fill="#6600ff" fill-opacity="0.5"/>
<text id="87" x="625.228164" y="347.270333" text-anchor="middle" fill="#6600ff"> * </text>
<text id="88" x="693.000000" y="488.000000" text-anchor="middle" fill="#6600ff"> * </text>
<text id="89" x="587.228164" y="629.729667" text-anchor="middle" fill="#6600ff"> * </text>
	<circle id="90" cx="655.000000" cy="480.000000" r="5.000000" stroke="#cc00ff" fill="#6600ff" fill-opacity="0.5"/>
	<circle id="91" cx="693.000000" cy="479.000000" r="5.000000" stroke="#cc00ff" fill="#6600ff" fill-opacity="0.5"/>
<text id="92" x="674.000000" y="484.000000" text-anchor="middle" fill="#6600ff"> * </text>
<line id="93" x1="332.325604" y1="557.999073" x2="332.825604" y2="575.099073" stroke="#008000" stroke-width="2" />
<line id="94" x1="622.728164" y1="624.029667" x2="611.928164" y2="639.029667" stroke="#008000" stroke-width="2" />
	<rect id="95" x="600.228164" y="354.270333" width="14.000000" height="29.000000" stroke="#800080" fill="#FF00FF" opacity="0.5" />
	<circle id="96" cx="331.825604" cy="553.099073" r="5.000000" stroke="#cc00ff" fill="#6600ff" fill-opacity="0.5"/>
	<circle id="97" cx="606.228164" cy="615.729667" r="5.000000" stroke="#cc00ff" fill="#6600ff" fill-opacity="0.5"/>
<line id="98" x1="591.228164" y1="625.729667" x2="600.228164" y2="638.729667" stroke="#008000" stroke-width="2" />
	<rect id="99" x="600.228164" y="635.729667" width="14.000000" height="29.000000" stroke="#800080" fill="#FF00FF" opacity="0.5" />
<text id="100" x="312.825604" y="567.099073" text-anchor="middle" fill="#6600ff"> * </text>
<text id="101" x="331.825604" y="562.099073" text-anchor="middle" fill="#6600ff"> * </text>
<line id="102" x1="674.500000" y1="479.900000" x2="675.000000" y2="497.000000" stroke="#008000" stroke-width="2" />
<text id="103" x="606.228164" y="624.729667" text-anchor="middle" fill="#6600ff"> * </text>
	<circle id="104" cx="350.825604" cy="557.099073" r="5.000000" stroke="#cc00ff" fill="#6600ff" fill-opacity="0.5"/>
<text id="64" x="202.946232" y="42.512976" text-anchor="middle" fill="#6600ff"> * </text>
<line id="26" x1="168.946232" y1="390.487024" x2="177.946232" y2="403.487024" stroke="#008000" stroke-width="2" />
<line id="57" x1="184.446232" y1="34.412976" x2="184.946232" y2="51.512976" stroke="#008000" stroke-width="2" />
<text id="32" x="164.946232" y="394.487024" text-anchor="middle" fill="#6600ff"> * </text>
<line id="56" x1="168.946232" y1="39.512976" x2="177.946232" y2="52.512976" stroke="#008000" stroke-width="2" />
<line id="27" x1="184.446232" y1="385.387024" x2="184.946232" y2="402.487024" stroke="#008000" stroke-width="2" />
	<circle id="21" cx="355.228164" cy="349.729667" r="5.000000" stroke="#cc00ff" fill="#6600ff" fill-opacity="0.5"/>
<text id="63" x="183.946232" y="38.512976" text-anchor="middle" fill="#6600ff"> * </text>
	<circle id="60" cx="183.946232" cy="29.512976" r="5.000000" stroke="#cc00ff" fill="#6600ff" fill-opacity="0.5"/>
<text id="62" x="164.946232" y="43.512976" text-anchor="middle" fill="#6600ff"> * </text>
	<rect id="55" x="177.946232" y="49.512976" width="14.000000" height="29.000000" stroke="#800080" fill="#FF00FF" opacity="0.5" />
	<circle id="59" cx="164.946232" cy="34.512976" r="5.000000" stroke="#cc00ff" fill="#6600ff" fill-opacity="0.5"/>
	<circle id="49" cx="42.825604" cy="131.900927" r="5.000000" stroke="#cc00ff" fill="#6600ff" fill-opacity="0.5"/>
	<rect id="45" x="55.825604" y="146.900927" width="14.000000" height="29.000000" stroke="#800080" fill="#FF00FF" opacity="0.5" />
	<circle id="30" cx="183.946232" cy="380.487024" r="5.000000" stroke="#cc00ff" fill="#6600ff" fill-opacity="0.5"/>
	<circle id="69" cx="317.228164" cy="69.270333" r="5.000000" stroke="#cc00ff" fill="#6600ff" fill-opacity="0.5"/>
<text id="53" x="61.825604" y="135.900927" text-anchor="middle" fill="#6600ff"> * </text>
	<circle id="70" cx="336.228164" cy="64.270333" r="5.000000" stroke="#cc00ff" fill="#6600ff" fill-opacity="0.5"/>
<text id="73" x="336.228164" y="73.270333" text-anchor="middle" fill="#6600ff"> * </text>
	<circle id="31" cx="202.946232" cy="384.487024" r="5.000000" stroke="#cc00ff" fill="#6600ff" fill-opacity="0.5"/>
<line id="66" x1="321.228164" y1="74.270333" x2="330.228164" y2="87.270333" stroke="#008000" stroke-width="2" />
	<rect id="25" x="177.946232" y="400.487024" width="14.000000" height="29.000000" stroke="#800080" fill="#FF00FF" opacity="0.5" />
	<circle id="51" cx="80.825604" cy="130.900927" r="5.000000" stroke="#cc00ff" fill="#6600ff" fill-opacity="0.5"/>
<text id="34" x="202.946232" y="393.487024" text-anchor="middle" fill="#6600ff"> * </text>
<text id="33" x="183.946232" y="389.487024" text-anchor="middle" fill="#6600ff"> * </text>
<line id="28" x1="200.446232" y1="388.787024" x2="189.646232" y2="403.787024" stroke="#008000" stroke-width="2" />
<line id="58" x1="200.446232" y1="37.812976" x2="189.646232" y2="52.812976" stroke="#008000" stroke-width="2" />
<line id="46" x1="46.825604" y1="136.900927" x2="55.825604" y2="149.900927" stroke="#008000" stroke-width="2" />
<text id="12" x="385.000000" y="219.000000" text-anchor="middle" fill="#6600ff"> * </text>
<text id="52" x="42.825604" y="140.900927" text-anchor="middle" fill="#6600ff"> * </text>
<line id="47" x1="62.325604" y1="131.800927" x2="62.825604" y2="148.900927" stroke="#008000" stroke-width="2" />
	<circle id="61" cx="202.946232" cy="33.512976" r="5.000000" stroke="#cc00ff" fill="#6600ff" fill-opacity="0.5"/>
<line id="67" x1="336.728164" y1="69.170333" x2="337.228164" y2="86.270333" stroke="#008000" stroke-width="2" />
<text id="72" x="317.228164" y="78.270333" text-anchor="middle" fill="#6600ff"> * </text>
<text id="54" x="80.825604" y="139.900927" text-anchor="middle" fill="#6600ff"> * </text>
	<rect id="5" x="398.000000" y="225.000000" width="14.000000" height="29.000000" stroke="#800080" fill="#FF00FF" opacity="0.5" />
	<circle id="50" cx="61.825604" cy="126.900927" r="5.000000" stroke="#cc00ff" fill="#6600ff" fill-opacity="0.5"/>
	<circle id="71" cx="355.228164" cy="68.270333" r="5.000000" stroke="#cc00ff" fill="#6600ff" fill-opacity="0.5"/>
<line id="48" x1="78.325604" y1="135.200927" x2="67.525604" y2="150.200927" stroke="#008000" stroke-width="2" />
	<circle id="29" cx="164.946232" cy="385.487024" r="5.000000" stroke="#cc00ff" fill="#6600ff" fill-opacity="0.5"/>
<text id="75" x="350.825604" y="566.099073" text-anchor="middle" fill="#6600ff"> * </text>
<line id="76" x1="606.728164" y1="620.629667" x2="607.228164" y2="637.729667" stroke="#008000" stroke-width="2" />
	<rect id="77" x="325.825604" y="573.099073" width="14.000000" height="29.000000" stroke="#800080" fill="#FF00FF" opacity="0.5" />
<line id="78" x1="690.500000" y1="483.300000" x2="679.700000" y2="498.300000" stroke="#008000" stroke-width="2" />
<line id="79" x1="348.325604" y1="561.399073" x2="337.525604" y2="576.399073" stroke="#008000" stroke-width="2" />
	<circle id="80" cx="312.825604" cy="558.099073" r="5.000000" stroke="#cc00ff" fill="#6600ff" fill-opacity="0.5"/>
<line id="81" x1="622.728164" y1="342.570333" x2="611.928164" y2="357.570333" stroke="#008000" stroke-width="2" />
<line id="82" x1="316.825604" y1="563.099073" x2="325.825604" y2="576.099073" stroke="#008000" stroke-width="2" />
<line id="83" x1="659.000000" y1="485.000000" x2="668.000000" y2="498.000000" stroke="#008000" stroke-width="2" />
<text id="84" x="625.228164" y="628.729667" text-anchor="middle" fill="#6600ff"> * </text>
	<circle id="85" cx="674.000000" cy="475.000000" r="5.000000" stroke="#cc00ff" fill="#6600ff" fill-opacity="0.5"/>
	<circle id="86" cx="587.228164" cy="620.729667" r="5.000000" stroke="#cc00ff" fill="#6600ff" fill-opacity="0.5"/>
<text id="87" x="625.228164" y="347.270333" text-anchor="middle" fill="#6600ff"> * </text>
<text id="88" x="693.000000" y="488.000000" text-anchor="middle" fill="#6600ff"> * </text>
<text id="89" x="587.228164" y="629.729667" text-anchor="middle" fill="#6600ff"> * </text>
	<circle id="90" cx="655.000000" cy="480.000000" r="5.000000" stroke="#cc00ff" fill="#6600ff" fill-opacity="0.5"/>
	<circle id="91" cx="693.000000" cy="479.000000" r="5.000000" stroke="#cc00ff" fill="#6600ff" fill-opacity="0.5"/>
<text id="92" x="674.000000" y="484.000000" text-anchor="middle" fill="#6600ff"> * </text>
<line id="93" x1="332.325604" y1="557.999073" x2="332.825604" y2="575.099073" stroke="#008000" stroke-width="2" />
<line id="94" x1="622.728164" y1="624.029667" x2="611.928164" y2="639.029667" stroke="#008000" stroke-width="2" />
	<rect id="95" x="600.228164" y="354.270333" width="14.000000" height="29.000000" stroke="#800080" fill="#FF00FF" opacity="0.5" />
	<circle id="96" cx="331.825604" cy="553.099073" r="5.000000" stroke="#cc00ff" fill="#6600ff" fill-opacity="0.5"/>
	<circle id="97" cx="606.228164" cy="615.729667" r="5.000000" stroke="#cc00ff" fill="#6600ff" fill-opacity="0.5"/>
<line id="98" x1="591.228164" y1="625.729667" x2="600.228164" y2="638.729667" stroke="#008000" stroke-width="2" />
	<rect id="99" x="600.228164" y="635.729667" width="14.000000" height="29.000000" stroke="#800080" fill="#FF00FF" opacity="0.5" />
<text id="100" x="312.825604" y="567.099073" text-anchor="middle" fill="#6600ff"> * </text>
<text id="101" x="331.825604" y="562.099073" text-anchor="middle" fill="#6600ff"> * </text>
<line id="102" x1="674.500000" y1="479.900000" x2="675.000000" y2="497.000000" stroke="#008000" stroke-width="2" />
<text id="103" x="606.228164" y="624.729667" text-anchor="middle" fill="#6600ff"> * </text>
	<circle id="104" cx="350.825604" cy="557.099073" r="5.000000" stroke="#cc00ff" fill="#6600ff" fill-opacity="0.5"/>
</svg>
