<svg xmlns:svg="http://www.w3.org/2000/svg" xmlns="http://www.w3.org/2000/svg" version="1.1" viewBox="-12.174396 -25.487024 490.174396 504.974048">
	<rect id="-1" x="-12.174396" y="-25.487024" width="490.174396" height="504.974048" stroke="black" fill="none" opacity="0.5" />
<polygon points="-12.17,199.98 -12.17,196.12 -12.17,196.12 155.67,199.19 130.91,174.45 130.91,174.45 -12.17,121.53 -12.17,-14.50 -12.17,-14.50 -12.17,-14.51 -12.17,-25.48 -12.17,-25.49 -12.17,-25.49 175.62,-25.49 175.62,-25.49 191.97,125.76 216.73,150.49 216.73,150.50 276.21,-25.49 435.14,-25.49 435.15,-25.49 435.15,-25.49 470.09,-25.49 470.09,-25.49 268.11,143.14 269.01,144.03 269.01,144.03 269.01,144.03 292.87,167.87 292.87,167.87 478.00,103.84 478.00,236.79 478.00,236.79 302.00,213.50 326.76,238.24 326.76,238.24 478.00,283.87 478.00,478.32 478.00,478.32 478.00,478.33 478.00,479.48 478.00,479.49 477.99,479.49 439.01,479.49 439.00,479.49 292.86,308.59 268.12,283.87 268.11,283.86 426.99,479.49 237.12,479.49 237.12,479.49 216.73,325.98 191.97,301.24 191.97,301.24 177.84,479.49 39.70,479.49 39.70,479.49 155.67,277.29 147.51,269.14 147.51,269.14 147.51,269.14 140.83,262.46 140.83,262.46 140.83,262.46 130.91,252.55 130.91,252.55 -12.17,361.38 -12.17,199.98 " style="fill:#e15b35ff; opacity:0.5; stroke:#6e0d04ff; stroke-width:1" />
<text id="64" x="202.946232" y="42.512976" text-anchor="middle" fill="#6600ff"> * </text>
<text id="44" x="80.825604" y="296.099073" text-anchor="middle" fill="#6600ff"> * </text>
<line id="57" x1="184.446232" y1="34.412976" x2="184.946232" y2="51.512976" stroke="#008000" stroke-width="2" />
<line id="68" x1="352.728164" y1="72.570333" x2="341.928164" y2="87.570333" stroke="#008000" stroke-width="2" />
	<circle id="31" cx="202.946232" cy="384.487024" r="5.000000" stroke="#cc00ff" fill="#6600ff" fill-opacity="0.5"/>
<text id="74" x="355.228164" y="77.270333" text-anchor="middle" fill="#6600ff"> * </text>
<text id="34" x="202.946232" y="393.487024" text-anchor="middle" fill="#6600ff"> * </text>
<line id="28" x1="200.446232" y1="388.787024" x2="189.646232" y2="403.787024" stroke="#008000" stroke-width="2" />
<line id="58" x1="200.446232" y1="37.812976" x2="189.646232" y2="52.812976" stroke="#008000" stroke-width="2" />
	<circle id="61" cx="202.946232" cy="33.512976" r="5.000000" stroke="#cc00ff" fill="#6600ff" fill-opacity="0.5"/>
<text id="64" x="202.946232" y="42.512976" text-anchor="middle" fill="#6600ff"> * </text>
<text id="44" x="80.825604" y="296.099073" text-anchor="middle" fill="#6600ff"> * </text>
<line id="57" x1="184.446232" y1="34.412976" x2="184.946232" y2="51.512976" stroke="#008000" stroke-width="2" />
<line id="68" x1="352.728164" y1="72.570333" x2="341.928164" y2="87.570333" stroke="#008000" stroke-width="2" />
	<circle id="31" cx="202.946232" cy="384.487024" r="5.000000" stroke="#cc00ff" fill="#6600ff" fill-opacity="0.5"/>
<text id="74" x="355.228164" y="77.270333" text-anchor="middle" fill="#6600ff"> * </text>
<text id="34" x="202.946232" y="393.487024" text-anchor="middle" fill="#6600ff"> * </text>
<line id="28" x1="200.446232" y1="388.787024" x2="189.646232" y2="403.787024" stroke="#008000" stroke-width="2" />
<line id="58" x1="200.446232" y1="37.812976" x2="189.646232" y2="52.812976" stroke="#008000" stroke-width="2" />
	<circle id="61" cx="202.946232" cy="33.512976" r="5.000000" stroke="#cc00ff" fill="#6600ff" fill-opacity="0.5"/>
</svg>
