<svg xmlns:svg="http://www.w3.org/2000/svg" xmlns="http://www.w3.org/2000/svg" version="1.1" viewBox="-12.174396 -25.487024 490.174396 504.974048">
	<rect id="-1" x="-12.174396" y="-25.487024" width="490.174396" height="504.974048" stroke="black" fill="none" opacity="0.5" />
<polygon points="130.91,199.99 130.91,144.45 -12.17,29.40 -12.17,-25.48 159.09,-25.49 191.97,155.75 191.97,95.77 182.64,-25.49 376.81,-25.49 268.11,113.14 268.11,144.75 478.00,-25.48 478.00,90.35 478.00,155.03 302.00,183.50 302.00,243.50 478.00,318.56 478.00,419.84 268.11,253.87 268.11,268.48 477.99,479.49 478.01,479.49 367.19,479.49 182.91,479.49 191.97,331.22 191.97,271.25 168.51,479.49 -12.17,479.49 -12.17,453.52 130.91,282.55 130.91,222.55 -12.17,269.25 -12.17,213.67 130.91,204.45 " style="fill:#e15b35ff; opacity:0.5; stroke:#6e0d04ff; stroke-width:1" />
<text id="44" x="80.825604" y="296.099073" text-anchor="middle" fill="#6600ff"> * </text>
	<rect id="35" x="55.825604" y="303.099073" width="14.000000" height="29.000000" stroke="#800080" fill="#FF00FF" opacity="0.5" />
<line id="8" x1="420.500000" y1="213.300000" x2="409.700000" y2="228.300000" stroke="#008000" stroke-width="2" />
<line id="57" x1="184.446232" y1="34.412976" x2="184.946232" y2="51.512976" stroke="#008000" stroke-width="2" />
<line id="27" x1="184.446232" y1="385.387024" x2="184.946232" y2="402.487024" stroke="#008000" stroke-width="2" />
<line id="38" x1="78.325604" y1="291.399073" x2="67.525604" y2="306.399073" stroke="#008000" stroke-width="2" />
	<circle id="39" cx="42.825604" cy="288.099073" r="5.000000" stroke="#cc00ff" fill="#6600ff" fill-opacity="0.5"/>
	<circle id="21" cx="355.228164" cy="349.729667" r="5.000000" stroke="#cc00ff" fill="#6600ff" fill-opacity="0.5"/>
<line id="36" x1="46.825604" y1="293.099073" x2="55.825604" y2="306.099073" stroke="#008000" stroke-width="2" />
<line id="6" x1="389.000000" y1="215.000000" x2="398.000000" y2="228.000000" stroke="#008000" stroke-width="2" />
	<circle id="60" cx="183.946232" cy="29.512976" r="5.000000" stroke="#cc00ff" fill="#6600ff" fill-opacity="0.5"/>
	<circle id="49" cx="42.825604" cy="131.900927" r="5.000000" stroke="#cc00ff" fill="#6600ff" fill-opacity="0.5"/>
	<rect id="45" x="55.825604" y="146.900927" width="14.000000" height="29.000000" stroke="#800080" fill="#FF00FF" opacity="0.5" />
	<circle id="30" cx="183.946232" cy="380.487024" r="5.000000" stroke="#cc00ff" fill="#6600ff" fill-opacity="0.5"/>
	<circle id="69" cx="317.228164" cy="69.270333" r="5.000000" stroke="#cc00ff" fill="#6600ff" fill-opacity="0.5"/>
<text id="53" x="61.825604" y="135.900927" text-anchor="middle" fill="#6600ff"> * </text>
	<circle id="70" cx="336.228164" cy="64.270333" r="5.000000" stroke="#cc00ff" fill="#6600ff" fill-opacity="0.5"/>
	<circle id="10" cx="404.000000" cy="205.000000" r="5.000000" stroke="#cc00ff" fill="#6600ff" fill-opacity="0.5"/>
<text id="73" x="336.228164" y="73.270333" text-anchor="middle" fill="#6600ff"> * </text>
<line id="66" x1="321.228164" y1="74.270333" x2="330.228164" y2="87.270333" stroke="#008000" stroke-width="2" />
<line id="82" x1="302.000000" y1="213.500000" x2="326.758589" y2="238.238881" stroke="#00aa88" stroke-width="2" />
<text id="14" x="423.000000" y="218.000000" text-anchor="middle" fill="#6600ff"> * </text>
	<circle id="51" cx="80.825604" cy="130.900927" r="5.000000" stroke="#cc00ff" fill="#6600ff" fill-opacity="0.5"/>
<line id="46" x1="46.825604" y1="136.900927" x2="55.825604" y2="149.900927" stroke="#008000" stroke-width="2" />
	<circle id="9" cx="385.000000" cy="210.000000" r="5.000000" stroke="#cc00ff" fill="#6600ff" fill-opacity="0.5"/>
	<circle id="11" cx="423.000000" cy="209.000000" r="5.000000" stroke="#cc00ff" fill="#6600ff" fill-opacity="0.5"/>
<text id="13" x="404.000000" y="214.000000" text-anchor="middle" fill="#6600ff"> * </text>
<line id="37" x1="62.325604" y1="287.999073" x2="62.825604" y2="305.099073" stroke="#008000" stroke-width="2" />
<text id="12" x="385.000000" y="219.000000" text-anchor="middle" fill="#6600ff"> * </text>
<text id="52" x="42.825604" y="140.900927" text-anchor="middle" fill="#6600ff"> * </text>
<line id="47" x1="62.325604" y1="131.800927" x2="62.825604" y2="148.900927" stroke="#008000" stroke-width="2" />
	<circle id="40" cx="61.825604" cy="283.099073" r="5.000000" stroke="#cc00ff" fill="#6600ff" fill-opacity="0.5"/>
<text id="42" x="42.825604" y="297.099073" text-anchor="middle" fill="#6600ff"> * </text>
<line id="67" x1="336.728164" y1="69.170333" x2="337.228164" y2="86.270333" stroke="#008000" stroke-width="2" />
<text id="43" x="61.825604" y="292.099073" text-anchor="middle" fill="#6600ff"> * </text>
<text id="72" x="317.228164" y="78.270333" text-anchor="middle" fill="#6600ff"> * </text>
<text id="54" x="80.825604" y="139.900927" text-anchor="middle" fill="#6600ff"> * </text>
	<rect id="5" x="398.000000" y="225.000000" width="14.000000" height="29.000000" stroke="#800080" fill="#FF00FF" opacity="0.5" />
<line id="7" x1="404.500000" y1="209.900000" x2="405.000000" y2="227.000000" stroke="#008000" stroke-width="2" />
	<circle id="50" cx="61.825604" cy="126.900927" r="5.000000" stroke="#cc00ff" fill="#6600ff" fill-opacity="0.5"/>
	<circle id="71" cx="355.228164" cy="68.270333" r="5.000000" stroke="#cc00ff" fill="#6600ff" fill-opacity="0.5"/>
	<circle id="41" cx="80.825604" cy="287.099073" r="5.000000" stroke="#cc00ff" fill="#6600ff" fill-opacity="0.5"/>
<line id="48" x1="78.325604" y1="135.200927" x2="67.525604" y2="150.200927" stroke="#008000" stroke-width="2" />
<text id="44" x="80.825604" y="296.099073" text-anchor="middle" fill="#6600ff"> * </text>
	<rect id="35" x="55.825604" y="303.099073" width="14.000000" height="29.000000" stroke="#800080" fill="#FF00FF" opacity="0.5" />
<line id="8" x1="420.500000" y1="213.300000" x2="409.700000" y2="228.300000" stroke="#008000" stroke-width="2" />
<line id="57" x1="184.446232" y1="34.412976" x2="184.946232" y2="51.512976" stroke="#008000" stroke-width="2" />
<line id="27" x1="184.446232" y1="385.387024" x2="184.946232" y2="402.487024" stroke="#008000" stroke-width="2" />
<line id="38" x1="78.325604" y1="291.399073" x2="67.525604" y2="306.399073" stroke="#008000" stroke-width="2" />
	<circle id="39" cx="42.825604" cy="288.099073" r="5.000000" stroke="#cc00ff" fill="#6600ff" fill-opacity="0.5"/>
	<circle id="21" cx="355.228164" cy="349.729667" r="5.000000" stroke="#cc00ff" fill="#6600ff" fill-opacity="0.5"/>
<line id="36" x1="46.825604" y1="293.099073" x2="55.825604" y2="306.099073" stroke="#008000" stroke-width="2" />
<line id="6" x1="389.000000" y1="215.000000" x2="398.000000" y2="228.000000" stroke="#008000" stroke-width="2" />
	<circle id="60" cx="183.946232" cy="29.512976" r="5.000000" stroke="#cc00ff" fill="#6600ff" fill-opacity="0.5"/>
	<circle id="49" cx="42.825604" cy="131.900927" r="5.000000" stroke="#cc00ff" fill="#6600ff" fill-opacity="0.5"/>
	<rect id="45" x="55.825604" y="146.900927" width="14.000000" height="29.000000" stroke="#800080" fill="#FF00FF" opacity="0.5" />
	<circle id="30" cx="183.946232" cy="380.487024" r="5.000000" stroke="#cc00ff" fill="#6600ff" fill-opacity="0.5"/>
	<circle id="69" cx="317.228164" cy="69.270333" r="5.000000" stroke="#cc00ff" fill="#6600ff" fill-opacity="0.5"/>
<text id="53" x="61.825604" y="135.900927" text-anchor="middle" fill="#6600ff"> * </text>
	<circle id="70" cx="336.228164" cy="64.270333" r="5.000000" stroke="#cc00ff" fill="#6600ff" fill-opacity="0.5"/>
	<circle id="10" cx="404.000000" cy="205.000000" r="5.000000" stroke="#cc00ff" fill="#6600ff" fill-opacity="0.5"/>
<text id="73" x="336.228164" y="73.270333" text-anchor="middle" fill="#6600ff"> * </text>
<line id="66" x1="321.228164" y1="74.270333" x2="330.228164" y2="87.270333" stroke="#008000" stroke-width="2" />
<line id="82" x1="302.000000" y1="213.500000" x2="326.758589" y2="238.238881" stroke="#00aa88" stroke-width="2" />
<text id="14" x="423.000000" y="218.000000" text-anchor="middle" fill="#6600ff"> * </text>
	<circle id="51" cx="80.825604" cy="130.900927" r="5.000000" stroke="#cc00ff" fill="#6600ff" fill-opacity="0.5"/>
<line id="46" x1="46.825604" y1="136.900927" x2="55.825604" y2="149.900927" stroke="#008000" stroke-width="2" />
	<circle id="9" cx="385.000000" cy="210.000000" r="5.000000" stroke="#cc00ff" fill="#6600ff" fill-opacity="0.5"/>
	<circle id="11" cx="423.000000" cy="209.000000" r="5.000000" stroke="#cc00ff" fill="#6600ff" fill-opacity="0.5"/>
<text id="13" x="404.000000" y="214.000000" text-anchor="middle" fill="#6600ff"> * </text>
<line id="37" x1="62.325604" y1="287.999073" x2="62.825604" y2="305.099073" stroke="#008000" stroke-width="2" />
<text id="12" x="385.000000" y="219.000000" text-anchor="middle" fill="#6600ff"> * </text>
<text id="52" x="42.825604" y="140.900927" text-anchor="middle" fill="#6600ff"> * </text>
<line id="47" x1="62.325604" y1="131.800927" x2="62.825604" y2="148.900927" stroke="#008000" stroke-width="2" />
	<circle id="40" cx="61.825604" cy="283.099073" r="5.000000" stroke="#cc00ff" fill="#6600ff" fill-opacity="0.5"/>
<text id="42" x="42.825604" y="297.099073" text-anchor="middle" fill="#6600ff"> * </text>
<line id="67" x1="336.728164" y1="69.170333" x2="337.228164" y2="86.270333" stroke="#008000" stroke-width="2" />
<text id="43" x="61.825604" y="292.099073" text-anchor="middle" fill="#6600ff"> * </text>
<text id="72" x="317.228164" y="78.270333" text-anchor="middle" fill="#6600ff"> * </text>
<text id="54" x="80.825604" y="139.900927" text-anchor="middle" fill="#6600ff"> * </text>
	<rect id="5" x="398.000000" y="225.000000" width="14.000000" height="29.000000" stroke="#800080" fill="#FF00FF" opacity="0.5" />
<line id="7" x1="404.500000" y1="209.900000" x2="405.000000" y2="227.000000" stroke="#008000" stroke-width="2" />
	<circle id="50" cx="61.825604" cy="126.900927" r="5.000000" stroke="#cc00ff" fill="#6600ff" fill-opacity="0.5"/>
	<circle id="71" cx="355.228164" cy="68.270333" r="5.000000" stroke="#cc00ff" fill="#6600ff" fill-opacity="0.5"/>
	<circle id="41" cx="80.825604" cy="287.099073" r="5.000000" stroke="#cc00ff" fill="#6600ff" fill-opacity="0.5"/>
<line id="48" x1="78.325604" y1="135.200927" x2="67.525604" y2="150.200927" stroke="#008000" stroke-width="2" />
</svg>
