<svg xmlns:svg="http://www.w3.org/2000/svg" xmlns="http://www.w3.org/2000/svg" version="1.1" viewBox="27.825604 14.512976 410.174396 424.974048">
	<rect id="-1" x="27.825604" y="14.512976" width="410.174396" height="424.974048" stroke="black" fill="none" opacity="0.5" />
<polygon points="130.91,144.45 27.83,14.51 27.83,14.51 166.35,14.51 191.97,95.76 268.11,146.91 268.11,146.91 268.11,146.91 438.00,106.13 438.00,106.13 438.00,161.50 302.00,243.50 268.11,268.54 268.11,268.54 268.11,268.54 343.26,439.49 343.26,439.49 185.35,439.49 191.97,271.24 27.83,405.72 130.91,222.55 130.91,144.45 " style="fill:#e15b35ff; opacity:0.5; stroke:none" />
<line x1="130.91" y1="144.45" x2="27.83" y2="14.51" style="stroke:#6e0d04ff; stroke-width:1; stroke-dasharray:none" />
<line x1="27.83" y1="14.51" x2="27.83" y2="14.51" style="stroke:red; stroke-width:4" />
<line x1="27.83" y1="14.51" x2="166.35" y2="14.51" style="stroke:red; stroke-width:4" />
<line x1="166.35" y1="14.51" x2="191.97" y2="95.76" style="stroke:#6e0d04ff; stroke-width:1; stroke-dasharray:none" />
<line x1="191.97" y1="95.76" x2="268.11" y2="146.91" style="stroke:#6e0d04ff; stroke-width:1; stroke-dasharray:none" />
<line x1="268.11" y1="146.91" x2="268.11" y2="146.91" style="stroke:red; stroke-width:4" />
<line x1="268.11" y1="146.91" x2="268.11" y2="146.91" style="stroke:red; stroke-width:4" />
<line x1="268.11" y1="146.91" x2="438.00" y2="106.13" style="stroke:#6e0d04ff; stroke-width:1; stroke-dasharray:none" />
<line x1="438.00" y1="106.13" x2="438.00" y2="106.13" style="stroke:red; stroke-width:4" />
<line x1="438.00" y1="106.13" x2="438.00" y2="161.50" style="stroke:red; stroke-width:4" />
<line x1="438.00" y1="161.50" x2="302.00" y2="243.50" style="stroke:#6e0d04ff; stroke-width:1; stroke-dasharray:none" />
<line x1="302.00" y1="243.50" x2="268.11" y2="268.54" style="stroke:#6e0d04ff; stroke-width:1; stroke-dasharray:none" />
<line x1="268.11" y1="268.54" x2="268.11" y2="268.54" style="stroke:red; stroke-width:4" />
<line x1="268.11" y1="268.54" x2="268.11" y2="268.54" style="stroke:red; stroke-width:4" />
<line x1="268.11" y1="268.54" x2="343.26" y2="439.49" style="stroke:#6e0d04ff; stroke-width:1; stroke-dasharray:none" />
<line x1="343.26" y1="439.49" x2="343.26" y2="439.49" style="stroke:red; stroke-width:4" />
<line x1="343.26" y1="439.49" x2="185.35" y2="439.49" style="stroke:red; stroke-width:4" />
<line x1="185.35" y1="439.49" x2="191.97" y2="271.24" style="stroke:#6e0d04ff; stroke-width:1; stroke-dasharray:none" />
<line x1="191.97" y1="271.24" x2="27.83" y2="405.72" style="stroke:#6e0d04ff; stroke-width:1; stroke-dasharray:none" />
<line x1="27.83" y1="405.72" x2="130.91" y2="222.55" style="stroke:#6e0d04ff; stroke-width:1; stroke-dasharray:none" />
<line x1="130.91" y1="222.55" x2="130.91" y2="144.45" style="stroke:#6e0d04ff; stroke-width:1; stroke-dasharray:none" />
<line x1="130.91" y1="144.45" x2="130.91" y2="144.45" style="stroke:#6e0d04ff; stroke-width:1; stroke-dasharray:none" />
<text id="64" x="202.946232" y="42.512976" text-anchor="middle" fill="#6600ff"> * </text>
<text id="44" x="80.825604" y="296.099073" text-anchor="middle" fill="#6600ff"> * </text>
<line id="17" x1="336.728164" y1="350.629667" x2="337.228164" y2="367.729667" stroke="#008000" stroke-width="2" />
<line id="26" x1="168.946232" y1="390.487024" x2="177.946232" y2="403.487024" stroke="#008000" stroke-width="2" />
<line id="8" x1="420.500000" y1="213.300000" x2="409.700000" y2="228.300000" stroke="#008000" stroke-width="2" />
<line id="57" x1="184.446232" y1="34.412976" x2="184.946232" y2="51.512976" stroke="#008000" stroke-width="2" />
<text id="32" x="164.946232" y="394.487024" text-anchor="middle" fill="#6600ff"> * </text>
<line id="27" x1="184.446232" y1="385.387024" x2="184.946232" y2="402.487024" stroke="#008000" stroke-width="2" />
<line id="38" x1="78.325604" y1="291.399073" x2="67.525604" y2="306.399073" stroke="#008000" stroke-width="2" />
	<circle id="39" cx="42.825604" cy="288.099073" r="5.000000" stroke="#cc00ff" fill="#6600ff" fill-opacity="0.5"/>
	<circle id="21" cx="355.228164" cy="349.729667" r="5.000000" stroke="#cc00ff" fill="#6600ff" fill-opacity="0.5"/>
<line id="68" x1="352.728164" y1="72.570333" x2="341.928164" y2="87.570333" stroke="#008000" stroke-width="2" />
<text id="63" x="183.946232" y="38.512976" text-anchor="middle" fill="#6600ff"> * </text>
<line id="36" x1="46.825604" y1="293.099073" x2="55.825604" y2="306.099073" stroke="#008000" stroke-width="2" />
<line id="6" x1="389.000000" y1="215.000000" x2="398.000000" y2="228.000000" stroke="#008000" stroke-width="2" />
	<circle id="60" cx="183.946232" cy="29.512976" r="5.000000" stroke="#cc00ff" fill="#6600ff" fill-opacity="0.5"/>
	<circle id="49" cx="42.825604" cy="131.900927" r="5.000000" stroke="#cc00ff" fill="#6600ff" fill-opacity="0.5"/>
	<rect id="45" x="55.825604" y="146.900927" width="14.000000" height="29.000000" stroke="#800080" fill="#FF00FF" opacity="0.5" />
	<circle id="30" cx="183.946232" cy="380.487024" r="5.000000" stroke="#cc00ff" fill="#6600ff" fill-opacity="0.5"/>
	<circle id="69" cx="317.228164" cy="69.270333" r="5.000000" stroke="#cc00ff" fill="#6600ff" fill-opacity="0.5"/>
<text id="53" x="61.825604" y="135.900927" text-anchor="middle" fill="#6600ff"> * </text>
	<circle id="70" cx="336.228164" cy="64.270333" r="5.000000" stroke="#cc00ff" fill="#6600ff" fill-opacity="0.5"/>
<text id="24" x="355.228164" y="358.729667" text-anchor="middle" fill="#6600ff"> * </text>
	<circle id="10" cx="404.000000" cy="205.000000" r="5.000000" stroke="#cc00ff" fill="#6600ff" fill-opacity="0.5"/>
<text id="73" x="336.228164" y="73.270333" text-anchor="middle" fill="#6600ff"> * </text>
<line id="66" x1="321.228164" y1="74.270333" x2="330.228164" y2="87.270333" stroke="#008000" stroke-width="2" />
	<circle id="19" cx="317.228164" cy="350.729667" r="5.000000" stroke="#cc00ff" fill="#6600ff" fill-opacity="0.5"/>
<text id="74" x="355.228164" y="77.270333" text-anchor="middle" fill="#6600ff"> * </text>
<text id="14" x="423.000000" y="218.000000" text-anchor="middle" fill="#6600ff"> * </text>
	<circle id="51" cx="80.825604" cy="130.900927" r="5.000000" stroke="#cc00ff" fill="#6600ff" fill-opacity="0.5"/>
<line id="58" x1="200.446232" y1="37.812976" x2="189.646232" y2="52.812976" stroke="#008000" stroke-width="2" />
<line id="46" x1="46.825604" y1="136.900927" x2="55.825604" y2="149.900927" stroke="#008000" stroke-width="2" />
<text id="22" x="317.228164" y="359.729667" text-anchor="middle" fill="#6600ff"> * </text>
	<circle id="9" cx="385.000000" cy="210.000000" r="5.000000" stroke="#cc00ff" fill="#6600ff" fill-opacity="0.5"/>
	<circle id="11" cx="423.000000" cy="209.000000" r="5.000000" stroke="#cc00ff" fill="#6600ff" fill-opacity="0.5"/>
<text id="13" x="404.000000" y="214.000000" text-anchor="middle" fill="#6600ff"> * </text>
<line id="37" x1="62.325604" y1="287.999073" x2="62.825604" y2="305.099073" stroke="#008000" stroke-width="2" />
<line id="18" x1="352.728164" y1="354.029667" x2="341.928164" y2="369.029667" stroke="#008000" stroke-width="2" />
	<rect id="65" x="330.228164" y="84.270333" width="14.000000" height="29.000000" stroke="#800080" fill="#FF00FF" opacity="0.5" />
<text id="12" x="385.000000" y="219.000000" text-anchor="middle" fill="#6600ff"> * </text>
<text id="52" x="42.825604" y="140.900927" text-anchor="middle" fill="#6600ff"> * </text>
<line id="47" x1="62.325604" y1="131.800927" x2="62.825604" y2="148.900927" stroke="#008000" stroke-width="2" />
	<circle id="40" cx="61.825604" cy="283.099073" r="5.000000" stroke="#cc00ff" fill="#6600ff" fill-opacity="0.5"/>
	<circle id="20" cx="336.228164" cy="345.729667" r="5.000000" stroke="#cc00ff" fill="#6600ff" fill-opacity="0.5"/>
	<circle id="61" cx="202.946232" cy="33.512976" r="5.000000" stroke="#cc00ff" fill="#6600ff" fill-opacity="0.5"/>
<line id="16" x1="321.228164" y1="355.729667" x2="330.228164" y2="368.729667" stroke="#008000" stroke-width="2" />
	<rect id="15" x="330.228164" y="365.729667" width="14.000000" height="29.000000" stroke="#800080" fill="#FF00FF" opacity="0.5" />
<text id="42" x="42.825604" y="297.099073" text-anchor="middle" fill="#6600ff"> * </text>
<line id="67" x1="336.728164" y1="69.170333" x2="337.228164" y2="86.270333" stroke="#008000" stroke-width="2" />
<text id="43" x="61.825604" y="292.099073" text-anchor="middle" fill="#6600ff"> * </text>
<text id="72" x="317.228164" y="78.270333" text-anchor="middle" fill="#6600ff"> * </text>
<text id="54" x="80.825604" y="139.900927" text-anchor="middle" fill="#6600ff"> * </text>
	<rect id="5" x="398.000000" y="225.000000" width="14.000000" height="29.000000" stroke="#800080" fill="#FF00FF" opacity="0.5" />
<line id="7" x1="404.500000" y1="209.900000" x2="405.000000" y2="227.000000" stroke="#008000" stroke-width="2" />
	<circle id="50" cx="61.825604" cy="126.900927" r="5.000000" stroke="#cc00ff" fill="#6600ff" fill-opacity="0.5"/>
<text id="23" x="336.228164" y="354.729667" text-anchor="middle" fill="#6600ff"> * </text>
	<circle id="71" cx="355.228164" cy="68.270333" r="5.000000" stroke="#cc00ff" fill="#6600ff" fill-opacity="0.5"/>
	<circle id="41" cx="80.825604" cy="287.099073" r="5.000000" stroke="#cc00ff" fill="#6600ff" fill-opacity="0.5"/>
<line id="48" x1="78.325604" y1="135.200927" x2="67.525604" y2="150.200927" stroke="#008000" stroke-width="2" />
	<circle id="29" cx="164.946232" cy="385.487024" r="5.000000" stroke="#cc00ff" fill="#6600ff" fill-opacity="0.5"/>
<text id="64" x="202.946232" y="42.512976" text-anchor="middle" fill="#6600ff"> * </text>
<text id="44" x="80.825604" y="296.099073" text-anchor="middle" fill="#6600ff"> * </text>
<line id="17" x1="336.728164" y1="350.629667" x2="337.228164" y2="367.729667" stroke="#008000" stroke-width="2" />
<line id="26" x1="168.946232" y1="390.487024" x2="177.946232" y2="403.487024" stroke="#008000" stroke-width="2" />
<line id="8" x1="420.500000" y1="213.300000" x2="409.700000" y2="228.300000" stroke="#008000" stroke-width="2" />
<line id="57" x1="184.446232" y1="34.412976" x2="184.946232" y2="51.512976" stroke="#008000" stroke-width="2" />
<text id="32" x="164.946232" y="394.487024" text-anchor="middle" fill="#6600ff"> * </text>
<line id="27" x1="184.446232" y1="385.387024" x2="184.946232" y2="402.487024" stroke="#008000" stroke-width="2" />
<line id="38" x1="78.325604" y1="291.399073" x2="67.525604" y2="306.399073" stroke="#008000" stroke-width="2" />
	<circle id="39" cx="42.825604" cy="288.099073" r="5.000000" stroke="#cc00ff" fill="#6600ff" fill-opacity="0.5"/>
	<circle id="21" cx="355.228164" cy="349.729667" r="5.000000" stroke="#cc00ff" fill="#6600ff" fill-opacity="0.5"/>
<line id="68" x1="352.728164" y1="72.570333" x2="341.928164" y2="87.570333" stroke="#008000" stroke-width="2" />
<text id="63" x="183.946232" y="38.512976" text-anchor="middle" fill="#6600ff"> * </text>
<line id="36" x1="46.825604" y1="293.099073" x2="55.825604" y2="306.099073" stroke="#008000" stroke-width="2" />
<line id="6" x1="389.000000" y1="215.000000" x2="398.000000" y2="228.000000" stroke="#008000" stroke-width="2" />
	<circle id="60" cx="183.946232" cy="29.512976" r="5.000000" stroke="#cc00ff" fill="#6600ff" fill-opacity="0.5"/>
	<circle id="49" cx="42.825604" cy="131.900927" r="5.000000" stroke="#cc00ff" fill="#6600ff" fill-opacity="0.5"/>
	<rect id="45" x="55.825604" y="146.900927" width="14.000000" height="29.000000" stroke="#800080" fill="#FF00FF" opacity="0.5" />
	<circle id="30" cx="183.946232" cy="380.487024" r="5.000000" stroke="#cc00ff" fill="#6600ff" fill-opacity="0.5"/>
	<circle id="69" cx="317.228164" cy="69.270333" r="5.000000" stroke="#cc00ff" fill="#6600ff" fill-opacity="0.5"/>
<text id="53" x="61.825604" y="135.900927" text-anchor="middle" fill="#6600ff"> * </text>
	<circle id="70" cx="336.228164" cy="64.270333" r="5.000000" stroke="#cc00ff" fill="#6600ff" fill-opacity="0.5"/>
<text id="24" x="355.228164" y="358.729667" text-anchor="middle" fill="#6600ff"> * </text>
	<circle id="10" cx="404.000000" cy="205.000000" r="5.000000" stroke="#cc00ff" fill="#6600ff" fill-opacity="0.5"/>
<text id="73" x="336.228164" y="73.270333" text-anchor="middle" fill="#6600ff"> * </text>
<line id="66" x1="321.228164" y1="74.270333" x2="330.228164" y2="87.270333" stroke="#008000" stroke-width="2" />
	<circle id="19" cx="317.228164" cy="350.729667" r="5.000000" stroke="#cc00ff" fill="#6600ff" fill-opacity="0.5"/>
<text id="74" x="355.228164" y="77.270333" text-anchor="middle" fill="#6600ff"> * </text>
<text id="14" x="423.000000" y="218.000000" text-anchor="middle" fill="#6600ff"> * </text>
	<circle id="51" cx="80.825604" cy="130.900927" r="5.000000" stroke="#cc00ff" fill="#6600ff" fill-opacity="0.5"/>
<line id="58" x1="200.446232" y1="37.812976" x2="189.646232" y2="52.812976" stroke="#008000" stroke-width="2" />
<line id="46" x1="46.825604" y1="136.900927" x2="55.825604" y2="149.900927" stroke="#008000" stroke-width="2" />
<text id="22" x="317.228164" y="359.729667" text-anchor="middle" fill="#6600ff"> * </text>
	<circle id="9" cx="385.000000" cy="210.000000" r="5.000000" stroke="#cc00ff" fill="#6600ff" fill-opacity="0.5"/>
	<circle id="11" cx="423.000000" cy="209.000000" r="5.000000" stroke="#cc00ff" fill="#6600ff" fill-opacity="0.5"/>
<text id="13" x="404.000000" y="214.000000" text-anchor="middle" fill="#6600ff"> * </text>
<line id="37" x1="62.325604" y1="287.999073" x2="62.825604" y2="305.099073" stroke="#008000" stroke-width="2" />
<line id="18" x1="352.728164" y1="354.029667" x2="341.928164" y2="369.029667" stroke="#008000" stroke-width="2" />
	<rect id="65" x="330.228164" y="84.270333" width="14.000000" height="29.000000" stroke="#800080" fill="#FF00FF" opacity="0.5" />
<text id="12" x="385.000000" y="219.000000" text-anchor="middle" fill="#6600ff"> * </text>
<text id="52" x="42.825604" y="140.900927" text-anchor="middle" fill="#6600ff"> * </text>
<line id="47" x1="62.325604" y1="131.800927" x2="62.825604" y2="148.900927" stroke="#008000" stroke-width="2" />
	<circle id="40" cx="61.825604" cy="283.099073" r="5.000000" stroke="#cc00ff" fill="#6600ff" fill-opacity="0.5"/>
	<circle id="20" cx="336.228164" cy="345.729667" r="5.000000" stroke="#cc00ff" fill="#6600ff" fill-opacity="0.5"/>
	<circle id="61" cx="202.946232" cy="33.512976" r="5.000000" stroke="#cc00ff" fill="#6600ff" fill-opacity="0.5"/>
<line id="16" x1="321.228164" y1="355.729667" x2="330.228164" y2="368.729667" stroke="#008000" stroke-width="2" />
	<rect id="15" x="330.228164" y="365.729667" width="14.000000" height="29.000000" stroke="#800080" fill="#FF00FF" opacity="0.5" />
<text id="42" x="42.825604" y="297.099073" text-anchor="middle" fill="#6600ff"> * </text>
<line id="67" x1="336.728164" y1="69.170333" x2="337.228164" y2="86.270333" stroke="#008000" stroke-width="2" />
<text id="43" x="61.825604" y="292.099073" text-anchor="middle" fill="#6600ff"> * </text>
<text id="72" x="317.228164" y="78.270333" text-anchor="middle" fill="#6600ff"> * </text>
<text id="54" x="80.825604" y="139.900927" text-anchor="middle" fill="#6600ff"> * </text>
	<rect id="5" x="398.000000" y="225.000000" width="14.000000" height="29.000000" stroke="#800080" fill="#FF00FF" opacity="0.5" />
<line id="7" x1="404.500000" y1="209.900000" x2="405.000000" y2="227.000000" stroke="#008000" stroke-width="2" />
	<circle id="50" cx="61.825604" cy="126.900927" r="5.000000" stroke="#cc00ff" fill="#6600ff" fill-opacity="0.5"/>
<text id="23" x="336.228164" y="354.729667" text-anchor="middle" fill="#6600ff"> * </text>
	<circle id="71" cx="355.228164" cy="68.270333" r="5.000000" stroke="#cc00ff" fill="#6600ff" fill-opacity="0.5"/>
	<circle id="41" cx="80.825604" cy="287.099073" r="5.000000" stroke="#cc00ff" fill="#6600ff" fill-opacity="0.5"/>
<line id="48" x1="78.325604" y1="135.200927" x2="67.525604" y2="150.200927" stroke="#008000" stroke-width="2" />
	<circle id="29" cx="164.946232" cy="385.487024" r="5.000000" stroke="#cc00ff" fill="#6600ff" fill-opacity="0.5"/>
</svg>
